<svg width="54" height="48" viewBox="0 0 54 48" fill="none" xmlns="http://www.w3.org/2000/svg">
<path fill-rule="evenodd" clip-rule="evenodd" d="M12.5402 0C12.6879 0.0104803 12.9094 0.0838428 13.0359 0.188646C13.152 0.282969 13.3102 0.471616 13.3734 0.60786C13.4578 0.765066 13.5 1.72926 13.5 6.75983H11.6016L11.5805 0.60786L11.918 0.30393C12.1184 0.125764 12.3715 0 12.5402 0ZM35.7012 11.5284V12.1991C35.7012 12.7755 35.7434 12.9118 35.9648 13.1424C36.1441 13.331 36.334 13.4148 36.566 13.4148C36.7559 13.4148 37.009 13.3729 37.125 13.31C37.241 13.2472 37.4098 13.0376 37.4941 12.8384C37.5785 12.6393 37.6523 12.262 37.6523 11.5284H39.5508V12.1782C39.5402 12.7441 39.5824 12.8803 39.8145 13.1214C40.0148 13.352 40.173 13.4148 40.5 13.4148C40.827 13.4148 40.9852 13.352 41.1855 13.1214C41.4176 12.8803 41.4598 12.7441 41.4492 11.5284H43.3477V12C43.3477 12.262 43.4215 12.6393 43.5059 12.8384C43.5902 13.0376 43.759 13.2472 43.875 13.31C43.991 13.3729 44.2441 13.4148 44.4234 13.4148C44.666 13.4148 44.8559 13.331 45.0352 13.1424C45.2566 12.9223 45.2988 12.7546 45.3516 11.5284L53.4938 11.5808L53.7469 11.8638C53.9895 12.1467 54 12.2096 54 13.9389C54 15.6681 53.9895 15.731 53.4938 16.2969H34.2562L34.0031 16.0035C33.7605 15.731 33.75 15.6681 33.75 13.9598C33.75 12.524 33.7816 12.1677 33.9188 11.9686C34.0137 11.8323 34.193 11.6856 34.3195 11.6332C34.4355 11.5808 34.8047 11.5389 35.7012 11.5284ZM19.6383 21.1808C28.2867 21.1703 32.6953 21.2017 32.6953 21.2751C32.6953 21.338 32.516 22.0716 31.9043 24.4402L27.4746 27.8777H17.6133L15.7465 26.2742C14.7129 25.3939 13.7531 24.5869 13.6055 24.4926C13.4578 24.3983 13.2047 24.3144 13.0465 24.3144C12.8566 24.3144 12.6352 24.4297 12.4348 24.6288C12.2449 24.8175 12.1289 25.0585 12.1289 25.2367C12.1289 25.3939 12.2133 25.6349 12.3082 25.7817C12.4137 25.9179 14.4703 27.71 16.875 29.7642C19.2797 31.8079 21.4102 33.6105 21.6 33.7782C21.832 33.9668 22.0535 34.0611 22.3066 34.0611C22.5809 34.0611 22.834 33.9459 23.2875 33.6C23.6145 33.338 26.093 31.4096 28.793 29.3031C32.3789 26.4943 33.8555 25.4044 34.2773 25.2367C34.6887 25.0795 35.1 25.0061 35.7012 25.0061C36.4289 24.9956 36.6398 25.048 37.2305 25.3205C37.6102 25.4882 38.1164 25.8341 38.3695 26.0751C38.6121 26.3162 38.9496 26.8087 39.1289 27.1755C39.2977 27.5319 39.4664 28.0873 39.5086 28.4017C39.5508 28.7371 39.5191 29.2192 39.4453 29.5546C39.3715 29.869 39.2027 30.3406 39.0656 30.6026C38.9285 30.8646 38.6121 31.2629 38.3695 31.5039C38.1164 31.745 34.8996 34.2812 31.2188 37.1633C27.5379 40.0349 24.2895 42.5188 23.9941 42.6655C23.7094 42.8227 23.1609 43.0114 22.7812 43.0742C22.2855 43.1581 21.9375 43.1581 21.5156 43.0742C21.1992 43.0114 20.7457 42.8751 20.5137 42.7703C20.2816 42.676 17.434 40.3284 14.1855 37.5616C10.9371 34.8052 8.14219 32.4367 7.96289 32.3004C7.79414 32.1747 7.51992 32.0594 7.36172 32.0699C7.19297 32.0699 6.9293 32.1852 6.75 32.3319C6.50742 32.531 6.43359 32.6777 6.43359 32.9921C6.42305 33.2122 6.50742 33.4742 6.61289 33.6C6.71836 33.7258 8.9543 35.6437 16.3477 41.9214V47.3712L15.7148 48H8.20547C1.24453 48 0.664453 47.979 0.464063 47.8114C0.3375 47.717 0.179297 47.5284 0.116016 47.4026C0.0316406 47.2245 0 44.4367 0 37.6245C0 29.4183 0.0210938 27.9721 0.16875 27.2699C0.263672 26.7878 0.537891 26.0332 0.854297 25.3939C1.29727 24.4716 1.49766 24.1886 2.24648 23.455C2.72109 22.9729 3.39609 22.4175 3.74414 22.2183C4.09219 22.0192 4.68281 21.7467 5.0625 21.6105C5.44219 21.4742 5.93789 21.3275 6.16992 21.2751C6.40195 21.2332 12.4664 21.1913 19.6488 21.1808H19.6383ZM9.49219 2.51528C9.54492 2.51528 9.58711 3.55284 9.58711 7.49345L9.14414 7.87074C8.89102 8.08035 8.54297 8.51004 8.35312 8.81397C8.16328 9.12838 7.9418 9.66288 7.84688 10.0087C7.74141 10.4175 7.68867 11.1092 7.68867 12C7.68867 12.9013 7.74141 13.5721 7.85742 13.9913C7.9418 14.3371 8.14219 14.8507 8.30039 15.1336C8.45859 15.4061 8.80664 15.8463 9.09141 16.0978C9.36562 16.3493 9.90351 16.7162 10.3043 16.8943C11.0004 17.2297 11.032 17.2402 12.4875 17.2402C13.7637 17.2297 14.0484 17.1983 14.5441 16.9991C14.8605 16.8734 15.3563 16.5904 15.641 16.3808C15.9363 16.1607 16.316 15.7729 16.5059 15.5109C16.6957 15.2489 16.9594 14.7563 17.0754 14.4105C17.2336 13.9703 17.318 13.4148 17.3602 12.5764C17.3918 11.9162 17.3602 11.0148 17.2969 10.5852C17.2336 10.124 17.0543 9.53712 16.875 9.17031C16.7062 8.82445 16.3055 8.28996 15.3879 7.38865V4.94672C15.3879 3.39563 15.4301 2.51528 15.4934 2.51528C15.5566 2.51528 15.8203 2.60961 16.1051 2.73537C16.3793 2.85066 16.9172 3.16507 17.318 3.41659C17.7082 3.66812 18.3199 4.17118 18.6891 4.53799C19.0477 4.89432 19.5645 5.54411 19.8387 5.9738C20.1129 6.40349 20.4609 7.0952 20.6086 7.49345C20.7668 7.8917 20.9566 8.57293 21.041 8.99214C21.1254 9.40087 21.1887 10.124 21.1887 10.5852C21.1887 11.0463 21.1254 11.7694 21.041 12.1886C20.9566 12.5974 20.7563 13.2996 20.598 13.7293C20.4293 14.159 20.0602 14.8716 19.7754 15.3013C19.4906 15.731 18.9738 16.3703 18.6152 16.7162C18.2566 17.062 17.6871 17.5336 17.3391 17.7642C16.991 17.9948 16.3477 18.3301 15.9152 18.5188C15.4828 18.6969 14.7234 18.9275 14.2277 19.0323C13.5633 19.1581 13.0148 19.1895 12.1184 19.1476C11.4539 19.1266 10.6207 19.0218 10.2727 18.9275C9.92461 18.8332 9.28125 18.5817 8.84883 18.3825C8.41641 18.1729 7.77305 17.8061 7.425 17.5546C7.07695 17.3135 6.54961 16.8524 6.26484 16.5485C5.96953 16.2341 5.5793 15.7729 5.4 15.5109C5.2207 15.2489 4.93594 14.7563 4.75664 14.4105C4.58789 14.0646 4.33477 13.4463 4.2082 13.048C4.02891 12.5031 3.95508 11.9581 3.92344 10.952C3.88125 9.79913 3.90234 9.44279 4.09219 8.64629C4.21875 8.12227 4.50352 7.32576 4.725 6.86463C4.94648 6.40349 5.41055 5.66987 5.75859 5.24017C6.09609 4.81048 6.70781 4.19214 7.10859 3.87773C7.51992 3.56332 8.19492 3.12314 8.6168 2.90306C9.03867 2.69345 9.43945 2.51528 9.49219 2.51528ZM12.6035 8.71965C13.6898 8.75109 13.8059 8.77205 14.2805 9.0655C14.6602 9.29607 14.8711 9.52664 15.0926 9.95633C15.3879 10.5118 15.3984 10.5852 15.3879 12.0314C15.3879 13.0376 15.3457 13.6349 15.2508 13.855C15.1664 14.0437 14.966 14.3581 14.7973 14.5572C14.6285 14.7459 14.3016 15.0079 14.0695 15.1336C13.7215 15.3118 13.4578 15.3537 12.5402 15.3537C11.6016 15.3537 11.3695 15.3223 11.0109 15.1231C10.7789 15.0079 10.4625 14.7668 10.3148 14.5991C10.1566 14.4419 9.9457 14.138 9.85078 13.9389C9.71367 13.6769 9.65039 13.2262 9.6082 12.4192C9.57656 11.6856 9.6082 11.0358 9.69258 10.6376C9.7875 10.2498 9.95625 9.85153 10.1566 9.6C10.3359 9.36943 10.6945 9.07598 10.9582 8.93974C11.3906 8.70917 11.5383 8.68821 12.6035 8.71965ZM35.448 18.2358H37.3359C38.3695 18.2358 39.2238 18.2568 39.2238 18.2882C39.2238 18.3197 38.9285 19.4935 38.5699 20.9083C38.032 23.0044 37.8738 23.476 37.7473 23.4236C37.6629 23.3817 37.3043 23.2873 36.9562 23.193C36.4816 23.0672 36.0598 23.0463 35.3004 23.0987C34.6359 23.1406 34.2668 23.1197 34.2668 23.0568C34.2668 22.9939 34.5305 21.8934 34.8574 20.5939L35.448 18.2358ZM41.2488 18.2358H42.1875C43.0312 18.2358 43.1262 18.2568 43.084 18.4245C43.0523 18.5188 42.9574 18.8751 42.873 19.2105C42.7676 19.5878 42.6199 19.8707 42.4617 19.9651C42.3141 20.0699 41.9766 20.1223 41.5125 20.1223C41.1223 20.1223 40.8059 20.1013 40.8059 20.0699C40.8059 20.0384 40.9008 19.6192 41.0273 19.1266L41.2488 18.2358ZM40.2891 22.1135H40.8586C41.3965 22.1135 41.4598 22.1345 41.7551 22.5118C41.9344 22.7214 42.1559 23.1616 42.2508 23.476C42.3563 23.8533 42.3984 24.283 42.3668 24.7336C42.3352 25.1843 42.2191 25.593 42.0398 25.9389C41.8922 26.2323 41.6496 26.5886 41.2277 27.0393L40.8691 26.3371C40.6793 25.9389 40.3207 25.3939 40.0781 25.1004C39.8461 24.8175 39.6668 24.5031 39.6879 24.4192C39.7195 24.3354 39.8145 23.9581 39.9094 23.5808C40.0043 23.2035 40.1309 22.7214 40.1836 22.5118L40.2891 22.1135Z" fill="white"/>
</svg>
