<svg width="16" height="16" viewBox="0 0 16 16" fill="none" xmlns="http://www.w3.org/2000/svg">
<path fill-rule="evenodd" clip-rule="evenodd" d="M8.73878 3.00566e-07C9.24531 1.00405e-07 9.66218 -0.000376793 10.0008 0.0272439C10.3036 0.0519537 10.5852 0.100987 10.851 0.214744L10.9639 0.267628C11.4271 0.503878 11.8043 0.881151 12.0401 1.34455C12.1921 1.64311 12.2522 1.9611 12.2804 2.30689C12.3081 2.64544 12.3077 3.06235 12.3077 3.56891V3.69231H12.6154C13.0369 3.69231 13.3842 3.69225 13.6675 3.71154C13.956 3.7312 14.223 3.77346 14.48 3.87981C14.7787 4.00351 15.0502 4.18482 15.2788 4.41346C15.5075 4.6421 15.6888 4.9136 15.8125 5.21234C15.9188 5.46926 15.9611 5.73626 15.9808 6.02484C16.0001 6.30813 16 6.65538 16 7.07692C16 7.49847 16.0001 7.84571 15.9808 8.12901C15.9627 8.39399 15.9232 8.63988 15.8349 8.8774C15.3652 10.4971 14.5015 11.9756 13.3205 13.1795C12.1395 14.3833 10.6785 15.2758 9.06811 15.7764L9.06731 15.7756L8.88942 15.8317L8.88862 15.8309C8.64767 15.9222 8.39815 15.9624 8.12901 15.9808C7.84571 16.0001 7.49847 16 7.07692 16C6.65538 16 6.30813 16.0001 6.02484 15.9808C5.73626 15.9611 5.46926 15.9188 5.21234 15.8125C4.60871 15.5627 4.12991 15.0825 3.87981 14.4808C3.77346 14.2238 3.7312 13.956 3.71154 13.6675C3.69225 13.3842 3.69231 13.0369 3.69231 12.6154V12.3077H3.56971C3.06283 12.3077 2.64559 12.3081 2.30689 12.2804C1.96105 12.2522 1.64223 12.1916 1.34375 12.0393C0.880374 11.803 0.504548 11.4266 0.26843 10.9631C0.116357 10.6646 0.0554744 10.3466 0.0272439 10.0008C-0.000385596 9.66225 1.26063e-07 9.24534 3.26424e-07 8.73878V3.56891C1.26195e-07 3.06188 -0.000397089 2.64466 0.0272439 2.30609C0.0554716 1.96037 0.116126 1.64214 0.26843 1.34375C0.504496 0.880588 0.88131 0.504367 1.34455 0.26843C1.64311 0.116357 1.9611 0.0554744 2.30689 0.0272439C2.64544 -0.000385633 3.06235 1.00274e-07 3.56891 3.00566e-07H8.73878ZM7.26122 4.92308C6.73441 4.92308 6.37623 4.92372 6.09936 4.94631C5.89718 4.96282 5.76904 4.98956 5.67708 5.02244L5.59535 5.05689C5.36356 5.17492 5.17492 5.36356 5.05689 5.59535C5.00823 5.69078 4.96833 5.82893 4.94631 6.09856C4.92371 6.37545 4.92308 6.7339 4.92308 7.26122V12.6154C4.92308 13.0535 4.92335 13.3516 4.9391 13.5833C4.95452 13.8097 4.98294 13.9278 5.01683 14.0096C5.14259 14.3117 5.38236 14.5512 5.68269 14.6755L5.7524 14.7003C5.83058 14.7232 5.93952 14.7417 6.10897 14.7532C6.3407 14.769 6.63883 14.7692 7.07692 14.7692C7.51502 14.7692 7.81315 14.769 8.04487 14.7532C8.27125 14.7378 8.3893 14.7094 8.47115 14.6755C8.62044 14.6136 8.75593 14.5229 8.87019 14.4087C8.98446 14.2944 9.07517 14.1589 9.13702 14.0096C9.17091 13.9278 9.19933 13.8097 9.21474 13.5833C9.2305 13.3516 9.23077 13.0535 9.23077 12.6154C9.23077 12.1938 9.23071 11.8466 9.25 11.5633C9.26966 11.2747 9.31192 11.0077 9.41827 10.7508C9.54198 10.4521 9.72329 10.1806 9.95192 9.95192C10.1806 9.72329 10.4521 9.54198 10.7508 9.41827C11.0077 9.31192 11.2747 9.26966 11.5633 9.25C11.8466 9.23071 12.1938 9.23077 12.6154 9.23077C13.0535 9.23077 13.3516 9.2305 13.5833 9.21474C13.8097 9.19933 13.9278 9.17091 14.0096 9.13702C14.1589 9.07517 14.2944 8.98446 14.4087 8.87019C14.5229 8.75593 14.6136 8.62044 14.6755 8.47115C14.7094 8.3893 14.7378 8.27125 14.7532 8.04487C14.769 7.81315 14.7692 7.51502 14.7692 7.07692C14.7692 6.63883 14.769 6.3407 14.7532 6.10897C14.7378 5.8826 14.7094 5.76455 14.6755 5.68269C14.6136 5.5334 14.5229 5.39792 14.4087 5.28365C14.2944 5.16939 14.1589 5.07868 14.0096 5.01683C13.9278 4.98294 13.8097 4.95452 13.5833 4.9391C13.3516 4.92335 13.0535 4.92308 12.6154 4.92308H7.26122ZM13.6675 10.4423C13.3842 10.4616 13.0369 10.4615 12.6154 10.4615C12.1773 10.4615 11.8792 10.4618 11.6474 10.4776C11.4211 10.493 11.303 10.5214 11.2212 10.5553C11.0719 10.6171 10.9364 10.7078 10.8221 10.8221C10.7078 10.9364 10.6171 11.0719 10.5553 11.2212C10.5214 11.303 10.493 11.4211 10.4776 11.6474C10.4618 11.8792 10.4615 12.1773 10.4615 12.6154C10.4615 13.0369 10.4616 13.3842 10.4423 13.6675C10.4379 13.7321 10.4318 13.7956 10.4247 13.8582C11.1638 13.4438 11.8445 12.9267 12.4423 12.3173C12.9988 11.75 13.4738 11.1125 13.8598 10.4247C13.7967 10.4319 13.7326 10.4379 13.6675 10.4423ZM3.56891 1.23077C3.04211 1.23077 2.68392 1.23141 2.40705 1.25401C2.20488 1.27051 2.07673 1.29725 1.98478 1.33013L1.90305 1.36458C1.67126 1.48262 1.48262 1.67126 1.36458 1.90305C1.31592 1.99847 1.27602 2.13662 1.25401 2.40625C1.2314 2.68314 1.23077 3.04159 1.23077 3.56891V8.73878C1.23077 9.26559 1.23141 9.62377 1.25401 9.90064C1.27603 10.1704 1.31564 10.3085 1.36458 10.4046C1.48281 10.6367 1.67098 10.8249 1.90305 10.9431C1.9984 10.9917 2.13708 11.0317 2.40705 11.0537C2.68411 11.0763 3.04266 11.0769 3.56971 11.0769H3.69231V7.26122C3.69231 6.75419 3.69191 6.33697 3.71955 5.9984C3.74426 5.69583 3.79379 5.41457 3.90785 5.14904L3.96074 5.03606C4.1968 4.5729 4.57362 4.19667 5.03686 3.96074C5.33542 3.80866 5.6534 3.74778 5.9992 3.71955C6.33775 3.69192 6.75466 3.69231 7.26122 3.69231H11.0769V3.56891C11.0769 3.04211 11.0763 2.68392 11.0537 2.40705C11.0372 2.20488 11.0104 2.07673 10.9776 1.98478L10.9431 1.90305C10.8254 1.67164 10.6374 1.48274 10.4062 1.36458C10.3095 1.3154 10.1705 1.27603 9.90064 1.25401C9.62367 1.23142 9.2655 1.23077 8.73878 1.23077H3.56891Z" fill="#7A89AD"/>
</svg>
