<svg width="22" height="24" viewBox="0 0 22 24" fill="none" xmlns="http://www.w3.org/2000/svg">
<path d="M16.1264 4.48781e-05C15.8752 -0.00156347 15.6256 0.0400702 15.3891 0.123047L1.42649 5.00312C1.1607 5.09559 0.916146 5.23852 0.706843 5.4237C0.49754 5.60888 0.327599 5.83269 0.206755 6.08229C0.0859121 6.3319 0.0165406 6.6024 0.00261496 6.87831C-0.0113107 7.15421 0.0304832 7.4301 0.125602 7.69016L5.56198 22.6054C5.65662 22.8653 5.80263 23.1044 5.99166 23.309C6.18069 23.5136 6.40904 23.6797 6.66366 23.7978C6.91828 23.9159 7.19417 23.9838 7.47557 23.9974C7.75697 24.0111 8.03836 23.9703 8.30365 23.8774L16.2132 21.1124C17.0219 20.8054 17.5865 20.5784 17.7081 20.5044C18.2625 20.1903 18.6904 19.6873 19.7135 18.1703C20.6366 16.8083 21.6118 14.8473 21.8548 13.8903C22.0998 12.9202 22.0988 12.4102 21.3422 10.2162L18.1298 1.39607C17.9823 0.990241 17.711 0.638632 17.3527 0.388909C16.9943 0.139187 16.5662 0.00342999 16.1264 4.48781e-05ZM16.0416 0.414051C16.7768 0.383051 17.4712 0.817057 17.7336 1.53407L21.4913 11.8912C21.5964 12.3242 21.2043 13.0382 20.7397 13.2412C20.5355 13.3412 20.0147 13.5342 19.5736 13.6702C18.1471 14.1333 17.4804 14.5483 17.0637 15.2173C16.6931 15.8083 16.7421 16.3973 17.2271 17.5943C17.6989 18.7363 17.7714 19.4583 17.4569 19.9943C17.3415 20.1823 17.1495 20.3163 16.0743 20.7274L16.0722 20.7224L8.16274 23.4874C7.94968 23.563 7.72343 23.5965 7.49707 23.586C7.27071 23.5754 7.04872 23.5211 6.84393 23.4261C6.63914 23.331 6.4556 23.1972 6.30392 23.0323C6.15224 22.8674 6.03542 22.6747 5.96021 22.4654L0.523834 7.55016C0.446648 7.34149 0.412442 7.11992 0.423193 6.89823C0.433943 6.67655 0.489437 6.45915 0.586468 6.25859C0.6835 6.05802 0.820146 5.87828 0.988514 5.72973C1.15688 5.58118 1.35363 5.46678 1.56741 5.39313L15.5311 0.513053C15.7012 0.453052 15.8714 0.420051 16.0416 0.414051ZM14.9827 2.25008L13.7543 3.13509L13.9453 3.6541L14.4793 3.33809L15.2993 5.57313L14.5886 5.82213C14.6345 5.96713 14.8091 6.46414 14.8316 6.48614L17.0433 5.70613L16.8003 5.04412L16.0988 5.29212L14.9827 2.25008ZM11.6233 3.4321L10.3949 4.31711L10.5848 4.83612L11.1199 4.52011L11.9398 6.75515L11.2281 7.00515C11.2751 7.14915 11.4487 7.64516 11.4711 7.66816L13.6839 6.89015L13.4408 6.22714L12.7393 6.47414L11.6233 3.4321ZM8.02387 4.78612C7.7349 4.78612 7.45205 4.86212 7.20698 5.00912C6.45953 5.45713 6.33904 6.39214 6.86798 7.56716C7.21209 8.34317 7.7594 8.78518 8.36084 8.78218C9.73423 8.77518 10.2601 7.38215 9.46874 5.83213C9.15526 5.17212 8.61407 4.79612 8.02387 4.78612ZM7.82884 5.45813C8.00039 5.44813 8.19337 5.54313 8.37922 5.73713C8.52728 5.89213 8.73354 6.24714 8.82544 6.52414C9.18283 7.52216 8.9929 8.21217 8.4027 8.07016C7.78902 7.93016 7.1304 6.00013 7.54906 5.58513C7.62154 5.50885 7.72155 5.46329 7.82782 5.45813H7.82884ZM3.98437 6.20814C3.6954 6.20814 3.41255 6.28414 3.16748 6.43114C2.42003 6.87915 2.29954 7.81316 2.82847 8.98818C3.17259 9.76519 3.7199 10.2062 4.32133 10.2032C5.6937 10.1962 6.22059 8.80518 5.42924 7.25315C5.11576 6.59314 4.57355 6.21714 3.98437 6.20814ZM3.78832 6.88015C3.95986 6.87015 4.15387 6.96515 4.33971 7.15815C4.48778 7.31315 4.69404 7.66816 4.78594 7.94516C5.14333 8.94418 4.9534 9.63419 4.36218 9.49219C3.74951 9.35118 3.09294 7.42016 3.51057 7.00715C3.58281 6.93111 3.68241 6.88556 3.78832 6.88015ZM17.4324 7.53516C17.1434 7.53516 16.8605 7.61116 16.6155 7.75816C15.868 8.20617 15.7475 9.14018 16.2765 10.3162C16.6206 11.0922 17.1679 11.5342 17.7693 11.5312C19.1427 11.5242 19.6686 10.1312 18.8772 8.58117C18.5637 7.92116 18.0226 7.54516 17.4324 7.53516ZM17.2373 8.20717C17.4089 8.19717 17.6019 8.29217 17.7877 8.48517C17.9358 8.64017 18.142 8.99518 18.2339 9.27218C18.5913 10.2712 18.4014 10.9612 17.8112 10.8192C17.1975 10.6782 16.5409 8.74717 16.9586 8.33417C17.031 8.25789 17.1311 8.21233 17.2373 8.20717ZM13.3918 8.95718C13.1039 8.95603 12.8211 9.03286 12.5749 9.17918C11.8295 9.62719 11.709 10.5622 12.237 11.7372C12.5811 12.5132 13.1284 12.9552 13.7298 12.9522C15.1022 12.9452 15.6291 11.5542 14.8377 10.0022C14.5242 9.34218 13.982 8.96618 13.3918 8.95718ZM13.1978 9.62719C13.3683 9.61919 13.5624 9.71319 13.7482 9.90719C13.8963 10.0622 14.1025 10.4172 14.1944 10.6942C14.5518 11.6922 14.3619 12.3822 13.7707 12.2412C13.158 12.0992 12.5004 10.1692 12.918 9.75619C12.9904 9.67954 13.0904 9.63361 13.1968 9.62819L13.1978 9.62719ZM9.37275 10.3712C9.08445 10.3688 8.80131 10.4461 8.55587 10.5942C7.80842 11.0422 7.68793 11.9762 8.21686 13.1512C8.56097 13.9283 9.10829 14.3693 9.70972 14.3663C11.0831 14.3593 11.609 12.9682 10.8176 11.4162C10.5041 10.7562 9.96193 10.3802 9.37275 10.3712ZM9.1767 11.0432C9.34927 11.0332 9.54226 11.1282 9.7281 11.3212C9.87616 11.4762 10.0824 11.8312 10.1743 12.1082C10.5317 13.1072 10.3418 13.7973 9.75159 13.6552C9.1379 13.5142 8.48133 11.5832 8.89896 11.1702C8.97119 11.0942 9.0708 11.0486 9.1767 11.0432ZM5.58751 11.6592L4.35912 12.5432L4.55006 13.0632L5.08512 12.7472L5.90405 14.9803L5.19336 15.2303C5.23931 15.3753 5.41392 15.8713 5.43638 15.8933L7.6481 15.1153L7.40508 14.4523L6.70358 14.6993L5.58751 11.6592ZM21.5821 12.9892C21.6169 12.9892 21.6322 13.0362 21.6475 13.1242C21.671 13.2342 21.5821 13.6692 21.4484 14.0813C20.9685 15.5163 19.3531 18.3043 18.3034 19.4773L17.8878 19.9473L17.9388 19.2803C17.9695 18.7133 17.9235 18.4683 17.5549 17.5703C17.0484 16.3073 17.0106 15.8403 17.3936 15.2603C17.7407 14.7463 18.4433 14.3533 19.8932 13.8903C20.6284 13.6522 21.093 13.4272 21.3075 13.2262C21.4422 13.0812 21.5188 13.0062 21.5658 12.9912L21.5811 12.9882L21.5821 12.9892ZM15.0164 14.4653L13.789 15.3503L13.98 15.8703L14.514 15.5533L15.334 17.7883L14.6233 18.0383C14.6692 18.1823 14.8438 18.6793 14.8663 18.7013L17.078 17.9223L16.835 17.2603L16.1335 17.5073L15.0164 14.4653ZM11.3629 15.7953C11.0739 15.7953 10.7911 15.8723 10.546 16.0183C9.79958 16.4663 9.67806 17.4003 10.207 18.5763C10.5511 19.3523 11.0984 19.7943 11.6999 19.7913C13.0732 19.7843 13.5991 18.3923 12.8088 16.8413C12.4953 16.1813 11.9531 15.8053 11.3629 15.7953ZM11.1679 16.4673C11.3394 16.4583 11.5334 16.5523 11.7193 16.7473C11.8663 16.9003 12.0726 17.2573 12.1655 17.5333C12.5229 18.5313 12.3329 19.2213 11.7417 19.0793C11.1291 18.9393 10.4715 17.0073 10.8891 16.5943C10.9616 16.518 11.0616 16.4725 11.1679 16.4673ZM7.57867 17.0833L6.34925 17.9683L6.5402 18.4883L7.07526 18.1713L7.89521 20.4054L7.1835 20.6554C7.22945 20.8004 7.40406 21.2974 7.42652 21.3194L9.63824 20.5404L9.39522 19.8773L8.69372 20.1253L7.57867 17.0833Z" fill="white"/>
</svg>
