<svg width="22" height="24" viewBox="0 0 22 24" fill="none" xmlns="http://www.w3.org/2000/svg">
<path d="M15.793 4.48774e-05C15.547 -0.00156345 15.3026 0.0400696 15.071 0.123045L1.39701 5.00304C1.13671 5.09552 0.897208 5.23844 0.692232 5.42362C0.487255 5.6088 0.320827 5.8326 0.202482 6.0822C0.0841362 6.33181 0.0161987 6.60231 0.0025609 6.87821C-0.0110769 7.15411 0.029853 7.42999 0.123006 7.69004L5.44701 22.605C5.53969 22.8649 5.68268 23.104 5.8678 23.3086C6.05293 23.5132 6.27656 23.6793 6.52591 23.7974C6.77527 23.9156 7.04546 23.9834 7.32104 23.9971C7.59662 24.0107 7.87219 23.9699 8.13201 23.877L15.878 21.112C16.67 20.805 17.223 20.578 17.342 20.504C17.885 20.19 18.304 19.687 19.306 18.17C20.21 16.808 21.165 14.847 21.403 13.89C21.643 12.92 21.642 12.41 20.901 10.216L17.755 1.39604C17.6106 0.990226 17.3449 0.638622 16.994 0.388903C16.643 0.139184 16.2237 0.00342994 15.793 4.48774e-05ZM15.71 0.414045C16.43 0.383045 17.11 0.817045 17.367 1.53404L21.047 11.891C21.15 12.324 20.766 13.038 20.311 13.241C20.111 13.341 19.601 13.534 19.169 13.67C17.772 14.133 17.119 14.548 16.711 15.217C16.348 15.808 16.396 16.397 16.871 17.594C17.333 18.736 17.404 19.458 17.096 19.994C16.983 20.182 16.795 20.316 15.742 20.727L15.74 20.722L7.99401 23.487C7.78534 23.5626 7.56377 23.5961 7.34209 23.5856C7.12041 23.5751 6.90301 23.5207 6.70245 23.4257C6.5019 23.3307 6.32215 23.1969 6.17361 23.032C6.02506 22.8671 5.91066 22.6744 5.83701 22.465L0.513006 7.55005C0.437415 7.34138 0.403916 7.11981 0.414445 6.89813C0.424973 6.67645 0.479319 6.45905 0.574345 6.25849C0.669371 6.05793 0.803193 5.87819 0.96808 5.72965C1.13297 5.5811 1.32565 5.4667 1.53501 5.39304L15.21 0.513045C15.3767 0.453045 15.5433 0.420045 15.71 0.414045ZM14.673 2.25004L13.47 3.13504L13.657 3.65404L14.18 3.33804L14.983 5.57304L14.287 5.82204C14.332 5.96704 14.503 6.46404 14.525 6.48604L16.691 5.70604L16.453 5.04404L15.766 5.29204L14.673 2.25004ZM11.383 3.43204L10.18 4.31704L10.366 4.83604L10.89 4.52004L11.693 6.75504L10.996 7.00504C11.042 7.14904 11.212 7.64505 11.234 7.66805L13.401 6.89004L13.163 6.22705L12.476 6.47404L11.383 3.43204ZM7.85801 4.78604C7.57501 4.78604 7.29801 4.86204 7.05801 5.00904C6.32601 5.45704 6.20801 6.39204 6.72601 7.56704C7.06301 8.34304 7.59901 8.78504 8.18801 8.78204C9.53301 8.77504 10.048 7.38204 9.27301 5.83204C8.96601 5.17204 8.43601 4.79604 7.85801 4.78604ZM7.66701 5.45805C7.83501 5.44805 8.02401 5.54304 8.20601 5.73704C8.35101 5.89204 8.55301 6.24704 8.64301 6.52404C8.99301 7.52205 8.80701 8.21204 8.22901 8.07004C7.62801 7.93004 6.98301 6.00004 7.39301 5.58504C7.46399 5.50877 7.56194 5.46321 7.66601 5.45805H7.66701ZM3.90201 6.20805C3.61901 6.20805 3.34201 6.28405 3.10201 6.43105C2.37001 6.87905 2.25201 7.81304 2.77001 8.98804C3.10701 9.76504 3.64301 10.206 4.23201 10.203C5.57601 10.196 6.09201 8.80504 5.31701 7.25304C5.01001 6.59304 4.47901 6.21705 3.90201 6.20805ZM3.71001 6.88004C3.87801 6.87004 4.06801 6.96504 4.25001 7.15804C4.39501 7.31304 4.59701 7.66804 4.68701 7.94504C5.03701 8.94405 4.85101 9.63404 4.27201 9.49204C3.67201 9.35104 3.02901 7.42004 3.43801 7.00704C3.50875 6.93101 3.60629 6.88546 3.71001 6.88004ZM17.072 7.53504C16.789 7.53504 16.512 7.61104 16.272 7.75804C15.54 8.20604 15.422 9.14004 15.94 10.316C16.277 11.092 16.813 11.534 17.402 11.531C18.747 11.524 19.262 10.131 18.487 8.58105C18.18 7.92105 17.65 7.54504 17.072 7.53504ZM16.881 8.20704C17.049 8.19704 17.238 8.29204 17.42 8.48504C17.565 8.64004 17.767 8.99505 17.857 9.27205C18.207 10.271 18.021 10.961 17.443 10.819C16.842 10.678 16.199 8.74704 16.608 8.33404C16.679 8.25777 16.7769 8.21221 16.881 8.20704ZM13.115 8.95704C12.833 8.9559 12.5561 9.03272 12.315 9.17904C11.585 9.62704 11.467 10.562 11.984 11.737C12.321 12.513 12.857 12.955 13.446 12.952C14.79 12.945 15.306 11.554 14.531 10.002C14.224 9.34204 13.693 8.96604 13.115 8.95704ZM12.925 9.62704C13.092 9.61904 13.282 9.71304 13.464 9.90704C13.609 10.062 13.811 10.417 13.901 10.694C14.251 11.692 14.065 12.382 13.486 12.241C12.886 12.099 12.242 10.169 12.651 9.75604C12.7218 9.6794 12.8198 9.63347 12.924 9.62805L12.925 9.62704ZM9.17901 10.371C8.89667 10.3686 8.61937 10.4459 8.37901 10.594C7.64701 11.042 7.52901 11.976 8.04701 13.151C8.38401 13.928 8.92001 14.369 9.50901 14.366C10.854 14.359 11.369 12.968 10.594 11.416C10.287 10.756 9.75601 10.38 9.17901 10.371ZM8.98701 11.043C9.15601 11.033 9.34501 11.128 9.52701 11.321C9.67201 11.476 9.87401 11.831 9.96401 12.108C10.314 13.107 10.128 13.797 9.55001 13.655C8.94901 13.514 8.30601 11.583 8.71501 11.17C8.78575 11.094 8.88329 11.0485 8.98701 11.043ZM5.47201 11.659L4.26901 12.543L4.45601 13.063L4.98001 12.747L5.78201 14.98L5.08601 15.23C5.13101 15.375 5.30201 15.871 5.32401 15.893L7.49001 15.115L7.25201 14.452L6.56501 14.699L5.47201 11.659ZM21.136 12.989C21.17 12.989 21.185 13.036 21.2 13.124C21.223 13.234 21.136 13.669 21.005 14.081C20.535 15.516 18.953 18.304 17.925 19.477L17.518 19.947L17.568 19.28C17.598 18.713 17.553 18.468 17.192 17.57C16.696 16.307 16.659 15.84 17.034 15.26C17.374 14.746 18.062 14.353 19.482 13.89C20.202 13.652 20.657 13.427 20.867 13.226C20.999 13.081 21.074 13.006 21.12 12.991L21.135 12.988L21.136 12.989ZM14.706 14.465L13.504 15.35L13.691 15.87L14.214 15.553L15.017 17.788L14.321 18.038C14.366 18.182 14.537 18.679 14.559 18.701L16.725 17.922L16.487 17.26L15.8 17.507L14.706 14.465ZM11.128 15.795C10.845 15.795 10.568 15.872 10.328 16.018C9.59701 16.466 9.47801 17.4 9.99601 18.576C10.333 19.352 10.869 19.794 11.458 19.791C12.803 19.784 13.318 18.392 12.544 16.841C12.237 16.181 11.706 15.805 11.128 15.795ZM10.937 16.467C11.105 16.458 11.295 16.552 11.477 16.747C11.621 16.9 11.823 17.257 11.914 17.533C12.264 18.531 12.078 19.221 11.499 19.079C10.899 18.939 10.255 17.007 10.664 16.594C10.735 16.5178 10.8329 16.4722 10.937 16.467ZM7.42201 17.083L6.21801 17.968L6.40501 18.488L6.92901 18.171L7.73201 20.405L7.03501 20.655C7.08001 20.8 7.25101 21.297 7.27301 21.319L9.43901 20.54L9.20101 19.877L8.51401 20.125L7.42201 17.083Z" fill="white"/>
</svg>
