<svg width="24" height="24" viewBox="0 0 24 24" fill="none" xmlns="http://www.w3.org/2000/svg">
<path fill-rule="evenodd" clip-rule="evenodd" d="M12 0C5.3724 0 0 5.3724 0 12C0 14.268 0.63 16.392 1.7256 18.2016L0.6552 21.84C0.593742 22.0489 0.589698 22.2705 0.643493 22.4815C0.697289 22.6925 0.806937 22.8851 0.960911 23.0391C1.11489 23.1931 1.3075 23.3027 1.5185 23.3565C1.7295 23.4103 1.9511 23.4063 2.16 23.3448L5.7984 22.2744C7.66889 23.4059 9.81389 24.0028 12 24C18.6276 24 24 18.6276 24 12C24 5.3724 18.6276 0 12 0ZM9.2856 14.7156C11.7132 17.142 14.0304 17.4624 14.8488 17.4924C16.0932 17.538 17.3052 16.5876 17.7768 15.4848C17.8358 15.3475 17.8572 15.1969 17.8386 15.0486C17.82 14.9004 17.7623 14.7597 17.6712 14.6412C17.0136 13.8012 16.1244 13.1976 15.2556 12.5976C15.0743 12.4719 14.8513 12.4214 14.6335 12.4567C14.4158 12.4921 14.2202 12.6106 14.088 12.7872L13.368 13.8852C13.33 13.944 13.271 13.9861 13.203 14.0031C13.135 14.02 13.0632 14.0105 13.002 13.9764C12.5136 13.6968 11.802 13.2216 11.2908 12.7104C10.7796 12.1992 10.3332 11.52 10.0824 11.0628C10.0521 11.0045 10.0435 10.9374 10.0582 10.8734C10.073 10.8094 10.11 10.7527 10.1628 10.7136L11.2716 9.8904C11.4303 9.75311 11.5328 9.56209 11.5593 9.35394C11.5859 9.14579 11.5347 8.93515 11.4156 8.7624C10.878 7.9752 10.2516 6.9744 9.3432 6.3108C9.22572 6.22639 9.08842 6.17375 8.94462 6.15798C8.80082 6.14221 8.65538 6.16385 8.5224 6.2208C7.4184 6.6936 6.4632 7.9056 6.5088 9.1524C6.5388 9.9708 6.8592 12.288 9.2856 14.7156Z" fill="white"/>
</svg>
