<svg width="18" height="24" viewBox="0 0 18 24" fill="none" xmlns="http://www.w3.org/2000/svg">
<path d="M17.9198 6.41479L17.7765 5.74876C17.6473 5.15074 17.3553 4.58572 16.6898 4.36972C16.4759 4.30071 16.2338 4.27171 16.071 4.12871C15.906 3.9857 15.8582 3.76269 15.8202 3.55669C15.7496 3.17867 15.6845 2.80066 15.6117 2.42365C15.5499 2.09863 15.501 1.73362 15.3403 1.43661C15.1286 1.0366 14.6922 0.802588 14.259 0.648583C14.0365 0.572557 13.8096 0.507791 13.5794 0.454576C12.4938 0.191566 11.3538 0.094563 10.2389 0.038561C8.9 -0.0286811 7.55763 -0.00796126 6.22196 0.100563C5.22859 0.183566 4.18094 0.28457 3.23642 0.600581C2.89119 0.716585 2.53509 0.85659 2.27237 1.1016C1.94993 1.40361 1.8457 1.87163 2.0802 2.24764C2.2474 2.51465 2.53075 2.70366 2.83148 2.82766C3.22231 2.98967 3.6316 3.11167 4.05066 3.19367C5.21773 3.43168 6.42715 3.52469 7.61919 3.56369C8.94296 3.61302 10.2638 3.57369 11.5818 3.44568C11.9068 3.41235 12.231 3.37268 12.5546 3.32668C12.9367 3.27268 13.1821 2.81366 13.0692 2.49265C12.9345 2.10963 12.573 1.96163 12.1637 2.01963C11.6578 2.09363 11.1215 2.12764 10.6634 2.16564C9.38446 2.24564 8.10484 2.24764 6.8245 2.17164C6.40485 2.14616 5.986 2.11048 5.5684 2.06463C5.47503 2.05463 5.37298 2.03963 5.2883 2.02863C5.02485 1.99196 4.76285 1.94863 4.50229 1.89863C4.38178 1.87163 4.38178 1.71362 4.50229 1.68662H4.50772C4.80881 1.62662 5.11206 1.57762 5.41749 1.53961H5.41966C5.56189 1.53061 5.70519 1.50761 5.84741 1.49161C7.08278 1.37327 8.32552 1.33317 9.56685 1.37161C10.2986 1.39094 11.0285 1.43894 11.7566 1.51561L12.0041 1.54661C12.2936 1.58662 12.5824 1.63495 12.8705 1.69162C13.2961 1.77662 13.8421 1.80462 14.0321 2.23364C14.0918 2.37064 14.119 2.52165 14.1526 2.66465L14.499 4.14871C14.5063 4.18053 14.5065 4.2134 14.4994 4.24528C14.4924 4.27716 14.4783 4.30736 14.458 4.334C14.4377 4.36064 14.4117 4.38316 14.3816 4.40014C14.3515 4.41712 14.3179 4.42821 14.2829 4.43272H14.2797L14.1581 4.44772C12.4503 4.64759 10.7303 4.74613 9.00883 4.74273C7.30305 4.74127 5.59911 4.63973 3.90735 4.43872C3.75536 4.42172 3.58926 4.39672 3.45464 4.37872C3.10072 4.33071 2.75005 4.27071 2.3983 4.21771C1.97164 4.15271 1.56452 4.18571 1.17912 4.37872C0.864277 4.53872 0.606978 4.78273 0.446301 5.07974C0.279111 5.39575 0.230257 5.73976 0.156433 6.07978C0.0815232 6.41979 -0.0346414 6.7868 0.0098703 7.13581C0.104322 7.88884 0.675374 8.50086 1.49721 8.63787C5.56132 9.30581 9.70853 9.43244 13.8117 9.01388C13.8897 9.00571 13.9686 9.01376 14.0428 9.03743C14.1169 9.0611 14.1843 9.09979 14.2401 9.15066C14.2958 9.20152 14.3384 9.26326 14.3648 9.33131C14.3912 9.39937 14.4007 9.47202 14.3926 9.5439L13.2103 20.1483C13.1658 20.5583 13.1593 20.9803 13.0746 21.3853C12.9421 22.0223 12.4742 22.4134 11.7913 22.5564C11.1631 22.6877 10.5276 22.756 9.88494 22.7614C9.17276 22.7654 8.46274 22.7364 7.75056 22.7394C6.99169 22.7434 6.06128 22.6794 5.47612 22.1593C4.96043 21.7013 4.88987 20.9853 4.8193 20.3663L3.67611 10.2589C3.63594 9.90791 3.36562 9.5639 2.94004 9.5809C2.57526 9.5959 2.16054 9.88091 2.20397 10.2599L3.48178 21.5573C3.64137 22.9014 4.75633 23.6254 6.13728 23.8294C6.94283 23.9494 7.76901 23.9734 8.58759 23.9854C9.63633 24.0014 10.6959 24.0384 11.7273 23.8634C13.2559 23.6054 14.4034 22.6654 14.5674 21.2063L15.9125 9.12388C15.9233 9.02017 15.9705 8.92251 16.0468 8.84565C16.1232 8.7688 16.2247 8.71693 16.3359 8.69787C16.7723 8.61987 17.1903 8.48586 17.5019 8.17985C17.9958 7.69183 18.0946 7.05681 17.9198 6.41479ZM16.3153 7.18682C16.1578 7.32382 15.9212 7.38782 15.6877 7.41982C13.0648 7.77884 10.405 7.95984 7.75381 7.87984C5.8561 7.81984 3.97901 7.62583 2.10083 7.38182C1.91627 7.35782 1.7176 7.32682 1.59058 7.20182C1.35173 6.96581 1.47007 6.49179 1.53195 6.20678C1.58841 5.94677 1.69697 5.59776 2.03461 5.56076C2.56006 5.50376 3.1702 5.70876 3.69131 5.78077C4.31737 5.86877 4.94596 5.93944 5.57708 5.99277C8.2695 6.21878 11.0075 6.18278 13.6891 5.85277C14.1776 5.79277 14.6643 5.72276 15.1493 5.64276C15.5824 5.57076 16.0612 5.43675 16.3218 5.84877C16.502 6.12978 16.5259 6.50579 16.4976 6.8228C16.4895 6.96135 16.4238 7.09169 16.3142 7.18682H16.3153ZM9.62873 11.087C8.6929 11.457 7.63113 11.875 6.25344 11.875C5.67773 11.8723 5.10495 11.7993 4.55006 11.658L5.50217 20.6623C5.57274 21.4423 6.28059 22.0423 7.13065 22.0423C7.13065 22.0423 8.48011 22.1073 8.93066 22.1073C9.41594 22.1073 10.8696 22.0423 10.8696 22.0423C11.7197 22.0423 12.4265 21.4423 12.497 20.6623L13.5175 10.7119C13.0571 10.5586 12.5719 10.4782 12.0823 10.4739C11.1856 10.4739 10.4636 10.7579 9.62873 11.087Z" fill="white"/>
</svg>
