<svg width="16" height="16" viewBox="0 0 16 16" fill="none" xmlns="http://www.w3.org/2000/svg">
<path d="M0 14.0005V6.5C0 6.18333 0.0709998 5.88333 0.213 5.6C0.355 5.31667 0.550667 5.08333 0.8 4.9L6.8 0.4C7.15 0.133333 7.55 0 8 0C8.45 0 8.85 0.133333 9.2 0.4L15.2 4.9C15.45 5.08333 15.646 5.31667 15.788 5.6C15.93 5.88333 16.0007 6.18333 16 6.5V14.0005C16 14.5505 15.804 15.0215 15.412 15.4135C15.02 15.8055 14.5493 16.0012 14 16.0005H11C10.7167 16.0005 10.4793 15.9045 10.288 15.7125C10.0967 15.5205 10.0007 15.2832 10 15.0005V11.0005C10 10.7172 9.904 10.4798 9.712 10.2885C9.52 10.0972 9.28267 10.0012 9 10.0005H7C6.71667 10.0005 6.47933 10.0965 6.288 10.2885C6.09667 10.4805 6.00067 10.7178 6 11.0005V15.0005C6 15.2838 5.904 15.5215 5.712 15.7135C5.52 15.9055 5.28267 16.0012 5 16.0005H2C1.45 16.0005 0.979333 15.8048 0.588 15.4135C0.196666 15.0222 0.000666667 14.5512 0 14.0005Z" fill="white"/>
</svg>
